<?xml version="1.0" encoding="UTF-8"?>
<svg width="50px" height="61px" viewBox="0 0 50 61" version="1.1" xmlns="http://www.w3.org/2000/svg" xmlns:xlink="http://www.w3.org/1999/xlink">
    <!-- Generator: Sketch 49.3 (51167) - http://www.bohemiancoding.com/sketch -->
    <title>flaticon1532622474-svg</title>
    <desc>Created with Sketch.</desc>
    <defs></defs>
    <g id="Page-1" stroke="none" stroke-width="1" fill="none" fill-rule="evenodd">
        <g id="avito_truck_game_guide" transform="translate(-715.000000, -530.000000)">
            <g id="flaticon1532622474-svg" transform="translate(716.444444, 530.618765)">
                <path d="M42.4474805,17.4622854 C41.4221926,17.4622854 40.466715,17.7741516 39.6734266,18.3055052 C38.9899403,16.3647316 37.1364003,14.9677066 34.9636272,14.9677066 C33.9383393,14.9677066 32.9828617,15.2795728 32.1895733,15.8109264 C31.506087,13.8701528 29.652547,12.4731278 27.4797739,12.4731278 C26.571772,12.4731278 25.7186127,12.7176394 24.9851951,13.144219 L24.9851951,4.98927452 C24.9851951,2.23767214 22.7475229,0 19.9959206,0 C17.2443182,0 15.006646,2.23767214 15.006646,4.98927452 L15.006646,34.1538509 L8.14898077,30.7237904 C7.11620902,30.2072876 5.95866739,29.9354132 4.80369834,29.9354132 C2.17441019,29.9354132 0.0389394243,32.0733397 0.0389394243,34.7151399 C0.0389394243,35.9898506 0.535329382,37.1848115 1.43596435,38.0853295 L17.5661239,54.215489 C21.2107604,57.8626982 26.06287,59.8708265 31.2217005,59.8708265 C40.1624496,59.8708265 47.436755,52.5965211 47.436755,43.655772 L47.436755,22.4515599 C47.436755,19.6999576 45.1990829,17.4622854 42.4474805,17.4622854 Z" id="Path" stroke="#979797" fill="#FFFFFF"></path>
                <path d="M42.4474805,17.4622854 C41.4221926,17.4622854 40.466715,17.7741516 39.6734266,18.3055052 C38.9899403,16.3647316 37.1364003,14.9677066 34.9636272,14.9677066 C33.9383393,14.9677066 32.9828617,15.2795728 32.1895733,15.8109264 C31.506087,13.8701528 29.652547,12.4731278 27.4797739,12.4731278 C26.571772,12.4731278 25.7186127,12.7176394 24.9851951,13.144219 L24.9851951,4.98927452 C24.9851951,2.23767214 22.7475229,0 19.9959206,0 C17.2443182,0 15.006646,2.23767214 15.006646,4.98927452 L15.006646,34.1538509 L8.14898077,30.7237904 C7.11620902,30.2072876 5.95866739,29.9354132 4.80369834,29.9354132 C2.17441019,29.9354132 0.0389394243,32.0733397 0.0389394243,34.7151399 C0.0389394243,35.9898506 0.535329382,37.1848115 1.43596435,38.0853295 L17.5661239,54.215489 C21.2107604,57.8626982 26.06287,59.8708265 31.2217005,59.8708265 C40.1624496,59.8708265 47.436755,52.5965211 47.436755,43.655772 L47.436755,22.4515599 C47.436755,19.6999576 45.1990829,17.4622854 42.4474805,17.4622854 Z M44.9420593,43.655772 C44.9420593,51.2219477 38.7853037,57.3761308 31.219128,57.3761308 C26.7263603,57.3761308 22.5054671,55.6273647 19.3323133,52.4492996 L3.1996981,36.3191401 C2.77066282,35.8925605 2.53363515,35.321332 2.53363515,34.7001722 C2.53363515,33.447913 3.5514392,32.430109 4.80369834,32.430109 C5.57453524,32.430109 6.34291649,32.6121771 7.03388663,32.9564343 L15.6977331,37.2871298 C16.0844379,37.4792543 16.5458642,37.4592584 16.9101174,37.2322872 C17.2768262,37.0053159 17.5013418,36.6036435 17.5013418,36.1720356 L17.5013418,4.98927452 C17.5013418,3.61470115 18.6188916,2.49469573 19.9959206,2.49469573 C21.3729496,2.49469573 22.4904994,3.61481808 22.4904994,4.98927452 L22.4904994,28.6881823 C22.4904994,29.3766968 23.0493327,29.9355302 23.7378472,29.9355302 C24.4263617,29.9355302 24.9851951,29.3766968 24.9851951,28.6881823 L24.9851951,17.4624024 C24.9851951,16.087829 26.1027449,14.9678236 27.4797739,14.9678236 C28.8568029,14.9678236 29.9743527,16.0879459 29.9743527,17.4624024 L29.9743527,28.6881823 C29.9743527,29.3766968 30.533186,29.9355302 31.2217005,29.9355302 C31.910215,29.9355302 32.4690484,29.3766968 32.4690484,28.6881823 L32.4690484,19.9569811 C32.4690484,18.5824078 33.5865982,17.4624024 34.9636272,17.4624024 C36.3406562,17.4624024 37.458206,18.5825247 37.458206,19.9569811 L37.458206,28.6881823 C37.458206,29.3766968 38.0170393,29.9355302 38.7055538,29.9355302 C39.3940683,29.9355302 39.9529017,29.3766968 39.9529017,28.6881823 L39.9529017,22.4515599 C39.9529017,21.0769866 41.0704515,19.9569811 42.4474805,19.9569811 C43.8245095,19.9569811 44.9420593,21.0771035 44.9420593,22.4515599 L44.9420593,43.655772 Z" id="Shape" fill="#000000" fill-rule="nonzero"></path>
            </g>
        </g>
    </g>
</svg>