<?xml version="1.0" encoding="UTF-8"?>
<svg width="32px" height="31px" viewBox="0 0 32 31" version="1.1" xmlns="http://www.w3.org/2000/svg" xmlns:xlink="http://www.w3.org/1999/xlink">
    <!-- Generator: Sketch 49.3 (51167) - http://www.bohemiancoding.com/sketch -->
    <title>Shape</title>
    <desc>Created with Sketch.</desc>
    <defs></defs>
    <g id="_obsolete" stroke="none" stroke-width="1" fill="none" fill-rule="evenodd">
        <g id="avito_truck_game_01_level+-copy-2" transform="translate(-1277.000000, -32.000000)" fill="#000000">
            <path d="M1302.67701,45.9667715 C1305.04868,45.9667715 1306.83399,44.9778477 1308.1511,43.2581704 L1306.39204,41.9148092 C1305.49938,43.0831396 1304.14727,43.7526323 1302.67701,43.7526323 C1300.10406,43.7526323 1298.23998,41.6566389 1298.23998,39.0836866 C1298.23998,36.5107343 1300.07343,34.2965951 1302.7514,34.2965951 C1303.94161,34.2965951 1304.78176,34.5766443 1305.51689,35.0317243 L1305.51689,37.293997 L1307.73103,37.293997 L1307.73103,33.994667 L1307.30658,33.6621086 C1306.09011,32.7038151 1304.23041,32.1962259 1302.67701,32.1962259 C1298.87885,32.1962259 1295.78955,35.2855189 1295.78955,39.0836866 C1295.78955,42.8774785 1298.87885,45.9667715 1302.67701,45.9667715 Z M1307.27157,59.5535348 L1307.19281,56.3811021 L1307.19281,48.6447422 L1302.57637,48.6447422 L1302.57637,50.8588814 L1304.86052,50.8588814 L1304.86052,56.1098045 C1304.86052,58.3720771 1303.13209,59.9736086 1301.39054,59.9736086 C1299.64898,59.9736086 1298.73882,58.7658963 1298.73882,56.5036237 L1298.73882,48.6447422 L1294.42431,48.6447422 L1294.42431,50.8588814 L1296.40654,50.8588814 L1296.40654,56.8886914 C1296.40654,59.9561056 1298.12621,62.0696021 1301.19363,62.0696021 C1302.95706,62.0696021 1304.30042,61.0938056 1305.10119,59.5841652 L1305.1362,59.5841652 L1305.45125,61.6932859 L1309,61.6932859 L1309,59.5579106 L1307.27157,59.5579106 L1307.27157,59.5535348 Z M1295.27759,32.5200328 L1291.43129,32.5200328 L1288.08382,42.2386162 L1288.03131,42.2386162 L1284.70135,32.5200328 L1280.60126,32.5200328 L1280.60126,34.734172 L1282.90729,34.734172 L1286.87611,45.8136196 L1288.98523,45.8136196 L1288.98523,45.8092438 L1288.98523,45.8092438 L1293.12471,34.734172 L1295.27759,34.734172 L1295.27759,32.5200328 Z M1277,61.7195405 L1279.27978,61.7195405 L1279.27978,59.4397648 L1277,59.4397648 L1277,61.7195405 Z M1285.80842,51.2133187 L1285.78217,51.2133187 L1285.63777,48.6447422 L1281.5683,48.6447422 L1281.5683,50.6619718 L1283.73431,50.6619718 L1283.73431,59.5535348 L1281.5683,59.5535348 L1281.5683,61.6889102 L1291.6282,61.6889102 L1291.6282,59.5929167 L1286.02721,59.5929167 L1286.02721,54.2282237 C1286.28101,52.2853822 1287.73814,50.6269657 1289.72474,50.6269657 L1289.72474,50.6269657 L1289.75974,50.6269657 L1289.72036,52.6135649 L1291.9345,52.6135649 L1291.9345,48.6053603 L1290.18419,48.6053603 C1288.18009,48.6009845 1286.69233,49.6861753 1285.80842,51.2133187 Z" id="Shape"></path>
        </g>
    </g>
</svg>