<svg width="28" height="30" viewBox="0 0 28 30" fill="none" xmlns="http://www.w3.org/2000/svg">
<path fill-rule="evenodd" clip-rule="evenodd" d="M27.9963 3.02234C28.0364 2.24011 27.7551 1.46533 27.2249 0.896606C26.6934 0.326782 25.946 0 25.1743 0H22.9448H20.8704H17.5999H15.814H12.186H10.4001H7.12964H5.05518H2.82568C2.05396 0 1.30664 0.326782 0.775146 0.896606C0.244873 1.46521 -0.036377 2.24011 0.00366211 3.02234C0.115479 5.20325 0.63623 7.19324 1.55151 8.93726C2.29419 10.3521 3.29102 11.5973 4.51465 12.6383C4.72363 12.8162 4.93188 12.9817 5.1377 13.1359C5.24097 13.8969 5.44092 14.6384 5.73706 15.3514C6.17383 16.4022 6.79834 17.3453 7.59351 18.1549C8.38892 18.9645 9.31543 19.6002 10.3477 20.0447C11.1843 20.4049 12.0613 20.6255 12.9629 20.705V22.7733C12.0457 22.9203 11.1892 23.261 10.4834 23.7684C9.31494 24.6085 8.64478 25.8451 8.64478 27.1611V29.2727H10.7192H17.2808H19.3552V27.1611C19.3552 25.8451 18.6851 24.6085 17.5166 23.7684C16.8108 23.261 15.9543 22.9203 15.0371 22.7733V20.705C15.9387 20.6255 16.8157 20.4049 17.6521 20.0447C18.6846 19.6002 19.6111 18.9645 20.4062 18.1549C21.2017 17.3453 21.8262 16.4022 22.2629 15.3514C22.5591 14.6385 22.759 13.897 22.8623 13.1359C23.0681 12.9817 23.2764 12.8162 23.4854 12.6383C24.709 11.5973 25.7058 10.3519 26.4485 8.93726C27.3638 7.19324 27.8845 5.20325 27.9963 3.02234ZM20.311 14.6245C19.2886 16.9818 16.9724 18.6272 14.2781 18.6272H13.7219C11.0276 18.6272 8.71143 16.9818 7.68872 14.6245C7.33472 13.808 7.13574 12.9061 7.13013 11.9575L7.12964 11.9169V2.11157H10.4001H12.498H15.502H17.5999H20.8704V11.9167L20.8696 11.9574C20.8643 12.9061 20.6653 13.808 20.311 14.6245ZM2.82593 2.11157C2.39697 2.11157 2.05322 2.47656 2.07544 2.91248C2.25366 6.3927 3.58398 8.7323 5.05542 10.2726V2.11157H2.82593ZM17.281 27.1611H10.7192C10.7192 25.9446 12.0005 24.9432 13.6458 24.8163H14.3545C15.9998 24.9432 17.281 25.9446 17.281 27.1611ZM22.9448 10.2726C24.4163 8.7323 25.7463 6.3927 25.9246 2.91248C25.947 2.47656 25.603 2.11157 25.1743 2.11157H22.9448V10.2726Z" fill="black"/>
</svg>
