<svg width="26" height="26" viewBox="0 0 26 26" fill="none" xmlns="http://www.w3.org/2000/svg">
<path d="M25.2383 0H19.1191C18.6985 0 18.3574 0.341047 18.3574 0.761719V6.11914H13C12.5793 6.11914 12.2383 6.46019 12.2383 6.88086V12.2383H6.88086C6.46019 12.2383 6.11914 12.5793 6.11914 13V18.3574H0.761719C0.341047 18.3574 0 18.6985 0 19.1191V25.2383C0 25.659 0.341047 26 0.761719 26H25.2383C25.659 26 26 25.659 26 25.2383V0.761719C26 0.341047 25.659 0 25.2383 0Z" fill="#92ECF6"/>
<path d="M13 0H6.88086C6.46019 0 6.11914 0.341047 6.11914 0.761719V6.11914H0.761719C0.341047 6.11914 0 6.46019 0 6.88086V12.2383V26H13C13.4207 26 13.7617 25.659 13.7617 25.2383V0.761719C13.7617 0.341047 13.4207 0 13 0Z" transform="translate(12.2383)" fill="#2FD6F0"/>
</svg>
