<svg width="27" height="26" viewBox="0 0 27 26" fill="none" xmlns="http://www.w3.org/2000/svg">
<path d="M23.7203 0H2.28432L0 3.46232V25.1898H26.0046V3.46232L23.7203 0Z" fill="#A98258"/>
<path d="M7.2425 2.06928H1.03464C0.465589 2.06928 0 1.6037 0 1.03464V1.03464C0 0.465589 0.465589 0 1.03464 0H7.2425C7.81155 0 8.27714 0.465589 8.27714 1.03464V1.03464C8.27714 1.6037 7.81155 2.06928 7.2425 2.06928Z" transform="translate(8.86377 7.08362)" fill="#5B4631"/>
<path d="M8.79446 0H0.517321C0.23176 0 0 0.231243 0 0.517321C0 0.8034 0.23176 1.03464 0.517321 1.03464H8.79446C9.08002 1.03464 9.31178 0.8034 9.31178 0.517321C9.31178 0.231243 9.08002 0 8.79446 0Z" transform="translate(8.34644 21.5686)" fill="#E8D5B2"/>
<path d="M0.517451 2.58596C0.649885 2.58596 0.782319 2.53526 0.883197 2.43438L1.55209 1.76549V5.17257C1.55209 5.45864 1.78385 5.68989 2.06941 5.68989C2.35498 5.68989 2.58674 5.45864 2.58674 5.17257V1.76549L3.25563 2.43438C3.35651 2.53526 3.48894 2.58596 3.62138 2.58596C3.75381 2.58596 3.88625 2.53526 3.98712 2.43438C4.1894 2.23211 4.1894 1.90516 3.98712 1.70289L2.43568 0.151446C2.38808 0.103335 2.33066 0.0655705 2.26703 0.0391871C2.1408 -0.0130624 1.99802 -0.0130624 1.8718 0.0391871C1.80817 0.0655705 1.75126 0.103335 1.70315 0.151446L0.151704 1.70289C-0.0505681 1.90516 -0.0505681 2.23211 0.151704 2.43438C0.252582 2.53526 0.385016 2.58596 0.517451 2.58596Z" transform="translate(8.34631 14.844)" fill="#E8D5B2"/>
<path d="M0.517451 2.58596C0.649885 2.58596 0.782319 2.53526 0.883197 2.43438L1.55209 1.76549V5.17257C1.55209 5.45864 1.78385 5.68989 2.06941 5.68989C2.35498 5.68989 2.58674 5.45864 2.58674 5.17257V1.76549L3.25563 2.43438C3.35651 2.53526 3.48894 2.58596 3.62138 2.58596C3.75381 2.58596 3.88625 2.53526 3.98712 2.43438C4.1894 2.23211 4.1894 1.90516 3.98712 1.70289L2.43568 0.151446C2.38808 0.103335 2.33066 0.0655705 2.26703 0.0391871C2.1408 -0.0130624 1.99802 -0.0130624 1.8718 0.0391871C1.80817 0.0655705 1.75126 0.103335 1.70315 0.151446L0.151704 1.70289C-0.0505681 1.90516 -0.0505681 2.23211 0.151704 2.43438C0.252582 2.53526 0.385016 2.58596 0.517451 2.58596Z" transform="translate(13.5195 14.844)" fill="#E8D5B2"/>
<path d="M2.28432 0L0 3.46232H26.0046L23.7203 0H2.28432Z" fill="#DAAE86"/>
<path d="M0 0H1.03464V3.46232H0L0 0Z" transform="translate(12.485)" fill="#F4D5BD"/>
</svg>
