<svg width="41" height="32" viewBox="0 0 41 32" fill="none" xmlns="http://www.w3.org/2000/svg">
<path d="M25.2383 0H19.1191C18.6985 0 18.3574 0.341047 18.3574 0.761719V6.11914H13C12.5793 6.11914 12.2383 6.46019 12.2383 6.88086V12.2383H6.88086C6.46019 12.2383 6.11914 12.5793 6.11914 13V18.3574H0.761719C0.341047 18.3574 0 18.6985 0 19.1191V25.2383C0 25.659 0.341047 26 0.761719 26H25.2383C25.659 26 26 25.659 26 25.2383V0.761719C26 0.341047 25.659 0 25.2383 0Z" transform="translate(15 6)" fill="#92ECF6"/>
<path d="M13 0H6.88086C6.46019 0 6.11914 0.341047 6.11914 0.761719V6.11914H0.761719C0.341047 6.11914 0 6.46019 0 6.88086V12.2383V26H13C13.4207 26 13.7617 25.659 13.7617 25.2383V0.761719C13.7617 0.341047 13.4207 0 13 0Z" transform="translate(27.2383 6)" fill="#2FD6F0"/>
<path d="M21.2392 1.14552L20.6111 0.518199C19.9217 -0.172733 18.7921 -0.172733 18.1004 0.518199L7.43738 11.1827L3.65371 7.40046C2.96424 6.71026 1.83389 6.71026 1.14442 7.40119L0.517102 8.02778C-0.172367 8.71798 -0.172367 9.8476 0.517102 10.5378L6.17908 16.2056C6.86928 16.8951 7.9989 16.8951 8.6891 16.2056L21.2392 3.65554C21.9279 2.96534 21.9279 1.83572 21.2392 1.14552Z" transform="translate(-0.000244141 0.442139)" fill="#1CD177"/>
</svg>
