<svg width="29" height="28" viewBox="0 0 29 28" fill="none" xmlns="http://www.w3.org/2000/svg">
<path fill-rule="evenodd" clip-rule="evenodd" d="M13 26C20.1797 26 26 20.1797 26 13C26 5.8203 20.1797 0 13 0C5.8203 0 0 5.8203 0 13C0 20.1797 5.8203 26 13 26Z" transform="translate(1.5 1)" fill="#9EB86F" stroke="#9EB86F" stroke-width="2"/>
<path d="M5.68748 11.375C5.36673 11.375 5.04564 11.2527 4.80096 11.0078L0.367307 6.57413C-0.122436 6.08439 -0.122436 5.2905 0.367307 4.80076C0.857049 4.31101 1.65094 4.31101 2.14069 4.80076L5.68748 8.34755L13.6679 0.367251C14.1577 -0.122343 14.9518 -0.122491 15.4412 0.367251C15.9311 0.856993 15.9311 1.65107 15.4412 2.14063L6.57419 11.0078C6.32932 11.2525 6.00838 11.375 5.68748 11.375Z" transform="translate(7.11743 8.57551)" fill="white"/>
</svg>
