<svg width="91" height="26" viewBox="0 0 91 26" fill="none" xmlns="http://www.w3.org/2000/svg">
<path d="M6.82034 13.6407C10.5871 13.6407 13.6407 10.5871 13.6407 6.82034C13.6407 3.05357 10.5871 0 6.82034 0C3.05357 0 0 3.05357 0 6.82034C0 10.5871 3.05357 13.6407 6.82034 13.6407Z" transform="translate(12.5698 11.8787)" fill="#97CF26"/>
<path d="M3.17472 6.34945C4.92808 6.34945 6.34945 4.92808 6.34945 3.17472C6.34945 1.42137 4.92808 0 3.17472 0C1.42137 0 0 1.42137 0 3.17472C0 4.92808 1.42137 6.34945 3.17472 6.34945Z" transform="translate(3.39502 15.5243)" fill="#A169F7"/>
<path d="M4.38993 8.77986C6.81442 8.77986 8.77986 6.81442 8.77986 4.38993C8.77986 1.96544 6.81442 0 4.38993 0C1.96544 0 0 1.96544 0 4.38993C0 6.81442 1.96544 8.77986 4.38993 8.77986Z" transform="translate(15.0002 1.48865)" fill="#FF6163"/>
<path d="M5.60513 11.2103C8.70076 11.2103 11.2103 8.70076 11.2103 5.60513C11.2103 2.5095 8.70076 0 5.60513 0C2.5095 0 0 2.5095 0 5.60513C0 8.70076 2.5095 11.2103 5.60513 11.2103Z" transform="translate(0.9646 0.273438)" fill="#00AAFF"/>
<path d="M12.1426 17.8538H15.6831L9.12619 0H6.55816L0 17.8544H3.5408L4.79307 14.4464H10.8904L12.1426 17.8544L5.77921 11.7595L7.84202 6.14529L9.90362 11.7595H5.77921L12.1426 17.8538Z" transform="translate(31.7996 3.98279)" fill="black"/>
<path d="M9.84164 0L6.58337 8.86918L3.32662 0H0L4.47864 12.1891H8.68872L13.1667 0H9.84104" transform="translate(46.4178 9.64746)" fill="black"/>
<path d="M0 0H3.32662V12.1891H0V0Z" transform="translate(60.9769 9.64758)" fill="black"/>
<path d="M2.1418 4.2836C3.32468 4.2836 4.2836 3.32468 4.2836 2.1418C4.2836 0.958916 3.32468 0 2.1418 0C0.958916 0 0 0.958916 0 2.1418C0 3.32468 0.958916 4.2836 2.1418 4.2836Z" transform="translate(60.5096 3.97986)" fill="black"/>
<path d="M9.94038 6.04868V3.36247H5.95542V0H2.63092V3.36247H0V6.04868H2.63092V11.2929C2.63092 13.9979 3.98344 15.8034 7.43706 15.8034C8.77074 15.8034 9.94038 15.3137 9.94038 15.3137L9.53632 12.6819C9.53632 12.6819 8.88163 12.8775 8.07656 12.8775C7.08981 12.8775 5.95542 12.4522 5.95542 11.0881V6.04838H9.94038" transform="translate(66.1088 6.28503)" fill="black"/>
<path fill-rule="evenodd" clip-rule="evenodd" d="M0 6.38586C0 2.86023 2.92407 0 6.52954 0C10.1329 0 13.0571 2.86023 13.0571 6.38586C13.0571 9.91309 10.1329 12.7719 6.5293 12.7719C2.92407 12.7719 0 9.91309 0 6.38586ZM3.172 6.42993C3.172 8.24365 4.67493 9.71411 6.52966 9.71411C8.38428 9.71436 9.8866 8.24402 9.8866 6.4303C9.8866 4.61804 8.38428 3.14709 6.52905 3.14709C4.67493 3.14709 3.172 4.6178 3.172 6.42993Z" transform="translate(77.1479 9.33643)" fill="black"/>
</svg>
