<svg width="31" height="24" viewBox="0 0 31 24" fill="none" xmlns="http://www.w3.org/2000/svg">
<path d="M26.6401 7.19402C26.6401 3.22081 23.4192 0 19.446 0C18.6984 0 15.2308 0 15.2308 0C15.2308 0 14.2211 1.97117 13.32 3.43702C12.0544 1.37786 9.78764 0 7.19326 0C6.39362 0 3.23077 0 3.23077 0C3.23077 0 0 4.02045 0 7.19402C0 9.35721 0.958565 11.2925 2.46932 12.6104L9.69231 23.0769C9.69231 23.0769 13.0737 23.0769 13.32 23.0769C13.5663 23.0769 13.8024 22.9791 13.9765 22.805L24.1707 12.6104C25.6815 11.2925 26.6401 9.35721 26.6401 7.19402Z" transform="translate(3.69238 0.0438232)" fill="#DF4C4D"/>
<path d="M26.6401 7.19402C26.6401 3.22081 23.4192 0 19.446 0C16.8515 0 14.5858 1.37786 13.32 3.43702C12.0544 1.37786 9.78764 0 7.19326 0C3.22005 0 0 3.22081 0 7.19402C0 9.35721 0.958565 11.2925 2.46932 12.6104L12.6635 22.805C12.8376 22.9791 13.0737 23.0769 13.32 23.0769C13.5663 23.0769 13.8024 22.9791 13.9765 22.805L24.1707 12.6104C25.6815 11.2925 26.6401 9.35721 26.6401 7.19402Z" transform="translate(0 0.0438232)" fill="#FF6162"/>
</svg>
